<svg width="240" height="59" viewBox="0 0 240 59" fill="none" xmlns="http://www.w3.org/2000/svg">
<g clip-path="url(#clip0_3717_1114)">
<path opacity="0.9" d="M10.488 25.3274V50.1002L0 45.161V20.396L10.488 25.3274Z" fill="#531FB9"/>
<path d="M29.3835 34.2196V58.9924L10.488 50.1004V25.3276L29.3835 34.2196Z" fill="#662ECE"/>
<path d="M67.6109 16.2272L57.006 21.2203L29.3835 34.2192H29.3757V25.6586C31.5497 26.0438 33.8717 26.2596 36.2716 26.2596C44.2428 26.2596 51.2711 23.9634 55.4087 20.4729C57.8865 18.3847 59.3358 15.8728 59.3358 13.1682C59.3358 12.8754 59.3202 12.5903 59.2813 12.3052L67.6109 16.2272Z" fill="#B995FF"/>
<path d="M67.6109 16.2275V41.0003L29.3835 58.9923V34.2196L57.0138 21.2206L67.6109 16.2275Z" fill="#7F3DFF"/>
<path d="M29.3835 25.659V34.2197L10.488 25.3277L18.5371 21.5366C21.35 23.4476 25.0902 24.9039 29.3835 25.659Z" fill="#B995FF"/>
<path d="M59.3435 13.1607C59.3435 15.8652 57.8942 18.3772 55.4164 20.4653C51.2789 23.9559 44.2505 26.2521 36.2793 26.2521C33.8794 26.2521 31.5574 26.044 29.3835 25.6511C25.0979 24.8882 21.35 23.4396 18.5449 21.5287L10.4958 25.3197L0 20.396L13.2775 14.1469L20.4617 10.7643L29.3835 14.9637L35.5157 17.9149L42.6843 14.5399L29.3835 8.21382L22.6123 5.02379L32.8353 0.215643C33.0067 0.130884 33.1704 0.0692412 33.3418 -0.0078125L59.289 12.2977C59.3279 12.5828 59.3435 12.8756 59.3435 13.1607Z" fill="white"/>
<path d="M87.9321 34.7821V17.8457H88.797L96.9318 25.8747L105.059 17.8457H106.968V34.7821H103.15V24.4261L96.4721 31.0296L89.8489 24.4261V34.7821H87.9321V34.7821Z" fill="#F4F4F5"/>
<path d="M112.679 36.67C112.765 37.9182 113.396 38.5424 114.573 38.5424H116.482C116.996 38.5424 117.448 38.3574 117.822 37.9876C118.196 37.6177 118.391 37.1785 118.391 36.67V32.8943C118.243 34.1503 117.604 34.7821 116.482 34.7821H114.573C113.529 34.7821 112.64 34.4123 111.892 33.6726C111.144 32.9328 110.77 32.0544 110.77 31.0219V21.606H114.573V31.0219C114.573 31.5305 114.76 31.9697 115.134 32.3395C115.508 32.7094 115.952 32.8943 116.482 32.8943C117.012 32.8943 117.464 32.7094 117.83 32.3395C118.204 31.9697 118.391 31.5305 118.391 31.0219V21.606H122.193V36.67C122.193 37.6948 121.819 38.5732 121.063 39.3129C120.308 40.0526 119.419 40.4225 118.391 40.4225H114.573C112.329 40.4225 111.066 39.1665 110.77 36.6622H112.679V36.67Z" fill="#F4F4F5"/>
<path d="M135.494 25.3816H133.601C133.437 24.1256 132.837 23.4938 131.801 23.4938C131.131 23.4938 130.624 23.6248 130.281 23.8867C129.946 24.1487 129.775 24.534 129.775 25.058C129.775 25.5973 130.702 26.3602 132.549 27.331C134.053 28.1324 134.918 28.7951 135.151 29.319C135.377 29.843 135.494 30.4055 135.494 30.9988C135.494 32.0467 135.12 32.9406 134.372 33.6726C133.624 34.4046 132.736 34.7821 131.692 34.7821H129.783C127.25 34.7821 125.98 33.5262 125.98 31.0219H127.889C128.037 32.2779 128.629 32.902 129.674 32.902C130.344 32.902 130.85 32.771 131.193 32.5091C131.528 32.2471 131.7 31.8541 131.7 31.3378C131.7 30.8062 130.78 30.051 128.933 29.0648C127.422 28.2711 126.557 27.6084 126.323 27.0768C126.089 26.5451 125.98 25.9903 125.98 25.4047C125.98 24.3491 126.354 23.4552 127.102 22.7155C127.85 21.9758 128.746 21.606 129.775 21.606H131.684C134.068 21.606 135.338 22.8619 135.494 25.3816Z" fill="#F4F4F5"/>
<path d="M141.221 17.8457H145.024V21.6059H146.933V23.4937H145.024V31.0296C145.024 31.6383 145.226 32.1006 145.632 32.4166C146.037 32.7402 146.411 32.8943 146.754 32.8943H146.933V34.7821H145.024C143.98 34.7821 143.084 34.4122 142.336 33.6725C141.588 32.9328 141.221 32.0544 141.221 31.0219V23.486H139.312V21.5982H141.221V17.8457Z" fill="#F4F4F5"/>
<path d="M162.143 29.1418H154.522V31.0296C154.522 31.5382 154.709 31.9774 155.083 32.3472C155.457 32.7171 155.901 32.902 156.431 32.902H158.34C159.603 32.902 160.234 32.2779 160.234 31.0296H162.143C161.847 33.5339 160.577 34.7898 158.34 34.7898H154.522C153.478 34.7898 152.59 34.42 151.842 33.6803C151.094 32.9406 150.72 32.0621 150.72 31.0296V25.3816C150.72 24.3414 151.094 23.4552 151.842 22.7155C152.59 21.9758 153.486 21.606 154.514 21.606H158.332C159.369 21.606 160.265 21.9758 161.013 22.7232C161.761 23.4707 162.135 24.3568 162.135 25.3816V29.1418H162.143ZM154.53 27.254H158.348V25.3816C158.348 24.8653 158.161 24.4184 157.779 24.0486C157.397 23.6787 156.953 23.4938 156.439 23.4938C155.917 23.4938 155.465 23.6787 155.091 24.0486C154.717 24.4184 154.53 24.8653 154.53 25.3816V27.254V27.254Z" fill="#F4F4F5"/>
<path d="M169.74 34.7821H165.938V21.606H169.74V25.3816C169.888 24.1256 170.278 23.1779 170.917 22.5537C171.555 21.9296 172.436 21.6137 173.558 21.6137H175.451V25.3893H171.649C171.127 25.3893 170.675 25.5742 170.301 25.9441C169.927 26.3139 169.74 26.7531 169.74 27.2617V34.7821Z" fill="#F4F4F5"/>
<path d="M179.269 36.67C179.355 37.9182 179.986 38.5424 181.163 38.5424H183.072C183.586 38.5424 184.038 38.3574 184.412 37.9876C184.786 37.6177 184.981 37.1785 184.981 36.67V32.8943C184.833 34.1503 184.194 34.7821 183.072 34.7821H181.163C180.119 34.7821 179.23 34.4123 178.482 33.6726C177.734 32.9328 177.36 32.0544 177.36 31.0219V21.606H181.163V31.0219C181.163 31.5305 181.35 31.9697 181.724 32.3395C182.098 32.7094 182.542 32.8943 183.072 32.8943C183.602 32.8943 184.054 32.7094 184.42 32.3395C184.794 31.9697 184.981 31.5305 184.981 31.0219V21.606H188.783V36.67C188.783 37.6948 188.409 38.5732 187.654 39.3129C186.898 40.0526 186.009 40.4225 184.981 40.4225H181.163C178.919 40.4225 177.656 39.1665 177.36 36.6622H179.269V36.67Z" fill="#F4F4F5"/>
<path d="M198.149 34.7821V17.8457H205.77C206.806 17.8457 207.702 18.2156 208.45 18.9553C209.198 19.695 209.572 20.5811 209.572 21.5982V22.5537C209.572 23.6556 209.253 24.5186 208.622 25.1504C207.991 25.7822 207.04 26.1675 205.77 26.3139C207.032 26.3139 207.983 26.6915 208.622 27.4466C209.261 28.2017 209.572 29.0801 209.572 30.0741V31.0296C209.572 32.0467 209.198 32.9251 208.443 33.6725C207.687 34.4199 206.798 34.7898 205.77 34.7898H198.149V34.7821ZM201.952 25.3816H203.861C204.375 25.3816 204.827 25.1966 205.201 24.8191C205.575 24.4492 205.77 24.0023 205.77 23.4937V21.6059C205.77 21.0974 205.583 20.6582 205.201 20.2883C204.819 19.9184 204.375 19.7335 203.861 19.7335H201.952V25.3816ZM201.952 32.8943H203.861C204.375 32.8943 204.827 32.7094 205.201 32.3395C205.575 31.9696 205.77 31.5304 205.77 31.0219V29.1341C205.77 27.8781 205.131 27.2463 203.861 27.2463H201.952V32.8943V32.8943Z" fill="#F4F4F5"/>
<path d="M217.169 21.606H220.987C222.024 21.606 222.92 21.9758 223.668 22.7232C224.416 23.4707 224.79 24.3568 224.79 25.3816V31.0296C224.79 32.0467 224.416 32.9251 223.668 33.6726C222.92 34.42 222.032 34.7898 220.987 34.7898H217.169C216.125 34.7898 215.237 34.42 214.489 33.6803C213.741 32.9406 213.367 32.0621 213.367 31.0296V25.3816C213.367 24.3414 213.741 23.4552 214.489 22.7155C215.245 21.9758 216.133 21.606 217.169 21.606ZM217.169 25.3816V31.0296C217.169 31.5382 217.356 31.9774 217.73 32.3472C218.104 32.7171 218.549 32.902 219.078 32.902C219.608 32.902 220.06 32.7171 220.426 32.3472C220.8 31.9774 220.987 31.5382 220.987 31.0296V25.3816C220.987 24.8653 220.8 24.4184 220.419 24.0486C220.037 23.6787 219.593 23.4938 219.078 23.4938C218.556 23.4938 218.104 23.6787 217.73 24.0486C217.356 24.4184 217.169 24.8653 217.169 25.3816Z" fill="#F4F4F5"/>
<path d="M228.585 34.7821V31.962C228.585 30.8524 228.904 29.9817 229.543 29.3576C230.182 28.7334 231.125 28.3482 232.387 28.2017C231.125 28.0553 230.182 27.6701 229.543 27.0382C228.904 26.4064 228.585 25.5357 228.585 24.4261V21.606H232.387V25.3816C232.387 25.8901 232.574 26.3371 232.948 26.6992C233.322 27.0691 233.774 27.254 234.296 27.254C234.811 27.254 235.262 27.0691 235.636 26.6992C236.01 26.3293 236.205 25.8901 236.205 25.3816V21.606H240.008V24.4261C240.008 25.5357 239.688 26.4064 239.057 27.0382C238.426 27.6701 237.475 28.0553 236.205 28.2017C237.468 28.3482 238.418 28.7334 239.057 29.3653C239.696 29.9971 240.008 30.8601 240.008 31.962V34.7821H236.205V31.0219C236.205 30.5057 236.018 30.0587 235.636 29.6889C235.255 29.319 234.811 29.1341 234.296 29.1341C233.774 29.1341 233.322 29.319 232.948 29.6889C232.574 30.0587 232.387 30.5057 232.387 31.0219V34.7821H228.585Z" fill="#F4F4F5"/>
</g>
<defs>
<clipPath id="clip0_3717_1114">
<rect width="240" height="59" fill="white"/>
</clipPath>
</defs>
</svg>
